<?xml version="1.0" encoding="UTF-8" standalone="no"?>
<!DOCTYPE svg PUBLIC "-//W3C//DTD SVG 1.1//EN"
        "http://www.w3.org/Graphics/SVG/1.1/DTD/svg11.dtd">
<!-- Generated by graphviz version 2.40.1 (20161225.0304)
 -->
<!-- Title: Decision tree Pages: 1 -->
<svg width="362pt" height="426pt"
     viewBox="0.00 0.00 362.00 425.56" xmlns="http://www.w3.org/2000/svg">
    <g id="graph0" class="graph" transform="scale(1 1) rotate(0) translate(4 421.5605)">
        <title>Decision tree</title>
        <polygon fill="#ffffff" stroke="transparent" points="-4,4 -4,-421.5605 358,-421.5605 358,4 -4,4"/>
        <!-- 4505979256 -->
        <g id="node1" class="node">
            <title>4505979256</title>
            <ellipse fill="none" stroke="#000000" cx="147" cy="-398.0444" rx="31.2258" ry="19.5322"/>
            <text text-anchor="middle" x="147" y="-396.6444" font-family="Times,serif" font-size="14.00" fill="#000000">
                纹理
            </text>
        </g>
        <!-- 4536187256 -->
        <g id="node2" class="node">
            <title>4536187256</title>
            <ellipse fill="none" stroke="#000000" cx="71" cy="-303.4124" rx="27" ry="19.5322"/>
            <text text-anchor="middle" x="71" y="-302.0123" font-family="Times,serif" font-size="14.00" fill="#000000">
                否
            </text>
        </g>
        <!-- 4505979256&#45;&gt;4536187256 -->
        <g id="edge1" class="edge">
            <title>4505979256&#45;&gt;4536187256</title>
            <path fill="none" stroke="#000000"
                  d="M131.8401,-380.6373C126.4539,-374.357 120.3916,-367.1779 115,-360.5284 106.6238,-350.198 97.6212,-338.604 89.955,-328.5747"/>
            <polygon fill="#000000" stroke="#000000"
                     points="92.7132,-326.4196 83.8728,-320.5803 87.1422,-330.6581 92.7132,-326.4196"/>
            <text text-anchor="middle" x="129" y="-349.3284" font-family="Times,serif" font-size="14.00" fill="#000000">
                模糊
            </text>
        </g>
        <!-- 4537469528 -->
        <g id="node3" class="node">
            <title>4537469528</title>
            <ellipse fill="none" stroke="#000000" cx="147" cy="-303.4124" rx="31.2258" ry="19.5322"/>
            <text text-anchor="middle" x="147" y="-302.0123" font-family="Times,serif" font-size="14.00" fill="#000000">
                根蒂
            </text>
        </g>
        <!-- 4505979256&#45;&gt;4537469528 -->
        <g id="edge2" class="edge">
            <title>4505979256&#45;&gt;4537469528</title>
            <path fill="none" stroke="#000000" d="M147,-378.4366C147,-365.3675 147,-347.9439 147,-333.1775"/>
            <polygon fill="#000000" stroke="#000000"
                     points="150.5001,-332.995 147,-322.9951 143.5001,-332.9951 150.5001,-332.995"/>
            <text text-anchor="middle" x="161" y="-349.3284" font-family="Times,serif" font-size="14.00" fill="#000000">
                清晰
            </text>
        </g>
        <!-- 4537546624 -->
        <g id="node11" class="node">
            <title>4537546624</title>
            <ellipse fill="none" stroke="#000000" cx="255" cy="-303.4124" rx="31.2258" ry="19.5322"/>
            <text text-anchor="middle" x="255" y="-302.0123" font-family="Times,serif" font-size="14.00" fill="#000000">
                触感
            </text>
        </g>
        <!-- 4505979256&#45;&gt;4537546624 -->
        <g id="edge10" class="edge">
            <title>4505979256&#45;&gt;4537546624</title>
            <path fill="none" stroke="#000000"
                  d="M165.3207,-381.9914C182.7757,-366.697 209.2331,-343.5144 228.8921,-326.2887"/>
            <polygon fill="#000000" stroke="#000000"
                     points="231.3748,-328.7669 236.5894,-319.5441 226.7616,-323.502 231.3748,-328.7669"/>
            <text text-anchor="middle" x="224" y="-349.3284" font-family="Times,serif" font-size="14.00" fill="#000000">
                稍糊
            </text>
        </g>
        <!-- 4491598872 -->
        <g id="node4" class="node">
            <title>4491598872</title>
            <ellipse fill="none" stroke="#000000" cx="31" cy="-208.7803" rx="27" ry="19.5322"/>
            <text text-anchor="middle" x="31" y="-207.3802" font-family="Times,serif" font-size="14.00" fill="#000000">
                否
            </text>
        </g>
        <!-- 4537469528&#45;&gt;4491598872 -->
        <g id="edge3" class="edge">
            <title>4537469528&#45;&gt;4491598872</title>
            <path fill="none" stroke="#000000"
                  d="M123.952,-290.006C113.0015,-283.265 99.9459,-274.6744 89,-265.8963 76.4023,-255.7935 63.4953,-243.3304 53.065,-232.6267"/>
            <polygon fill="#000000" stroke="#000000"
                     points="55.3946,-229.9991 45.9476,-225.2026 50.3415,-234.8434 55.3946,-229.9991"/>
            <text text-anchor="middle" x="103" y="-254.6963" font-family="Times,serif" font-size="14.00" fill="#000000">
                硬挺
            </text>
        </g>
        <!-- 4491598928 -->
        <g id="node5" class="node">
            <title>4491598928</title>
            <ellipse fill="none" stroke="#000000" cx="107" cy="-208.7803" rx="31.2258" ry="19.5322"/>
            <text text-anchor="middle" x="107" y="-207.3802" font-family="Times,serif" font-size="14.00" fill="#000000">
                色泽
            </text>
        </g>
        <!-- 4537469528&#45;&gt;4491598928 -->
        <g id="edge4" class="edge">
            <title>4537469528&#45;&gt;4491598928</title>
            <path fill="none" stroke="#000000"
                  d="M137.5463,-284.4621C134.6996,-278.5596 131.634,-271.9982 129,-265.8963 125.0413,-256.7257 121.0236,-246.589 117.5239,-237.4321"/>
            <polygon fill="#000000" stroke="#000000"
                     points="120.7602,-236.0946 113.9571,-227.9725 114.2104,-238.5643 120.7602,-236.0946"/>
            <text text-anchor="middle" x="143" y="-254.6963" font-family="Times,serif" font-size="14.00" fill="#000000">
                稍蜷
            </text>
        </g>
        <!-- 4537546400 -->
        <g id="node10" class="node">
            <title>4537546400</title>
            <ellipse fill="none" stroke="#000000" cx="183" cy="-208.7803" rx="27" ry="19.5322"/>
            <text text-anchor="middle" x="183" y="-207.3802" font-family="Times,serif" font-size="14.00" fill="#000000">
                是
            </text>
        </g>
        <!-- 4537469528&#45;&gt;4537546400 -->
        <g id="edge9" class="edge">
            <title>4537469528&#45;&gt;4537546400</title>
            <path fill="none" stroke="#000000"
                  d="M154.2851,-284.2621C159.4087,-270.794 166.3532,-252.5391 172.1295,-237.3553"/>
            <polygon fill="#000000" stroke="#000000"
                     points="175.4413,-238.493 175.7257,-227.902 168.8987,-236.004 175.4413,-238.493"/>
            <text text-anchor="middle" x="182" y="-254.6963" font-family="Times,serif" font-size="14.00" fill="#000000">
                蜷缩
            </text>
        </g>
        <!-- 4491657400 -->
        <g id="node6" class="node">
            <title>4491657400</title>
            <ellipse fill="none" stroke="#000000" cx="63" cy="-114.1482" rx="31.2258" ry="19.5322"/>
            <text text-anchor="middle" x="63" y="-112.7481" font-family="Times,serif" font-size="14.00" fill="#000000">
                触感
            </text>
        </g>
        <!-- 4491598928&#45;&gt;4491657400 -->
        <g id="edge5" class="edge">
            <title>4491598928&#45;&gt;4491657400</title>
            <path fill="none" stroke="#000000"
                  d="M97.3207,-190.1811C94.2667,-184.1782 90.9274,-177.4713 88,-171.2642 83.5794,-161.8909 78.9685,-151.5399 74.9281,-142.2535"/>
            <polygon fill="#000000" stroke="#000000"
                     points="78.1312,-140.8423 70.9559,-133.047 71.7039,-143.6154 78.1312,-140.8423"/>
            <text text-anchor="middle" x="102" y="-160.0642" font-family="Times,serif" font-size="14.00" fill="#000000">
                乌黑
            </text>
        </g>
        <!-- 4537546344 -->
        <g id="node9" class="node">
            <title>4537546344</title>
            <ellipse fill="none" stroke="#000000" cx="139" cy="-114.1482" rx="27" ry="19.5322"/>
            <text text-anchor="middle" x="139" y="-112.7481" font-family="Times,serif" font-size="14.00" fill="#000000">
                是
            </text>
        </g>
        <!-- 4491598928&#45;&gt;4537546344 -->
        <g id="edge8" class="edge">
            <title>4491598928&#45;&gt;4537546344</title>
            <path fill="none" stroke="#000000"
                  d="M113.4757,-189.63C117.9866,-176.2902 124.0854,-158.2543 129.1903,-143.1578"/>
            <polygon fill="#000000" stroke="#000000"
                     points="132.6461,-143.8642 132.534,-133.2699 126.015,-141.6218 132.6461,-143.8642"/>
            <text text-anchor="middle" x="139" y="-160.0642" font-family="Times,serif" font-size="14.00" fill="#000000">
                青绿
            </text>
        </g>
        <!-- 4491657344 -->
        <g id="node7" class="node">
            <title>4491657344</title>
            <ellipse fill="none" stroke="#000000" cx="27" cy="-19.5161" rx="27" ry="19.5322"/>
            <text text-anchor="middle" x="27" y="-18.116" font-family="Times,serif" font-size="14.00" fill="#000000">是
            </text>
        </g>
        <!-- 4491657400&#45;&gt;4491657344 -->
        <g id="edge6" class="edge">
            <title>4491657400&#45;&gt;4491657344</title>
            <path fill="none" stroke="#000000" d="M55.7149,-94.998C50.5913,-81.5299 43.6468,-63.2749 37.8705,-48.0911"/>
            <polygon fill="#000000" stroke="#000000"
                     points="41.1013,-46.7399 34.2743,-38.6378 34.5587,-49.2288 41.1013,-46.7399"/>
            <text text-anchor="middle" x="63" y="-65.4321" font-family="Times,serif" font-size="14.00" fill="#000000">
                硬滑
            </text>
        </g>
        <!-- 4491657456 -->
        <g id="node8" class="node">
            <title>4491657456</title>
            <ellipse fill="none" stroke="#000000" cx="99" cy="-19.5161" rx="27" ry="19.5322"/>
            <text text-anchor="middle" x="99" y="-18.116" font-family="Times,serif" font-size="14.00" fill="#000000">否
            </text>
        </g>
        <!-- 4491657400&#45;&gt;4491657456 -->
        <g id="edge7" class="edge">
            <title>4491657400&#45;&gt;4491657456</title>
            <path fill="none" stroke="#000000" d="M70.2851,-94.998C75.4087,-81.5299 82.3532,-63.2749 88.1295,-48.0911"/>
            <polygon fill="#000000" stroke="#000000"
                     points="91.4413,-49.2288 91.7257,-38.6378 84.8987,-46.7399 91.4413,-49.2288"/>
            <text text-anchor="middle" x="99" y="-65.4321" font-family="Times,serif" font-size="14.00" fill="#000000">
                软粘
            </text>
        </g>
        <!-- 4537546568 -->
        <g id="node12" class="node">
            <title>4537546568</title>
            <ellipse fill="none" stroke="#000000" cx="255" cy="-208.7803" rx="27" ry="19.5322"/>
            <text text-anchor="middle" x="255" y="-207.3802" font-family="Times,serif" font-size="14.00" fill="#000000">
                否
            </text>
        </g>
        <!-- 4537546624&#45;&gt;4537546568 -->
        <g id="edge11" class="edge">
            <title>4537546624&#45;&gt;4537546568</title>
            <path fill="none" stroke="#000000" d="M255,-283.8045C255,-270.7354 255,-253.3118 255,-238.5454"/>
            <polygon fill="#000000" stroke="#000000"
                     points="258.5001,-238.3629 255,-228.363 251.5001,-238.363 258.5001,-238.3629"/>
            <text text-anchor="middle" x="269" y="-254.6963" font-family="Times,serif" font-size="14.00" fill="#000000">
                硬滑
            </text>
        </g>
        <!-- 4537546848 -->
        <g id="node13" class="node">
            <title>4537546848</title>
            <ellipse fill="none" stroke="#000000" cx="327" cy="-208.7803" rx="27" ry="19.5322"/>
            <text text-anchor="middle" x="327" y="-207.3802" font-family="Times,serif" font-size="14.00" fill="#000000">
                是
            </text>
        </g>
        <!-- 4537546624&#45;&gt;4537546848 -->
        <g id="edge12" class="edge">
            <title>4537546624&#45;&gt;4537546848</title>
            <path fill="none" stroke="#000000"
                  d="M270.3298,-286.1398C275.732,-279.8721 281.7609,-272.6666 287,-265.8963 294.6784,-255.9736 302.6957,-244.724 309.519,-234.848"/>
            <polygon fill="#000000" stroke="#000000"
                     points="312.4105,-236.8201 315.1693,-226.5907 306.6335,-232.867 312.4105,-236.8201"/>
            <text text-anchor="middle" x="314" y="-254.6963" font-family="Times,serif" font-size="14.00" fill="#000000">
                软粘
            </text>
        </g>
    </g>
</svg>
